# Blender v2.80 (sub 75) OBJ File: 'concrete-floor-4.5x4.5.blend'
# www.blender.org
g concrete-4.5x4.5_concrete-tile-mesh
v -2.250000 0.000000 2.250000
v 2.250000 0.000000 2.250000
v -2.250000 0.000000 -2.250000
v 2.250000 0.000000 -2.250000
v -2.250000 -0.200000 2.250000
v 2.250000 -0.200000 2.250000
v -2.250000 -0.200000 -2.250000
v 2.250000 -0.200000 -2.250000
vt 1.000000 0.000000
vt 0.000000 1.000000
vt 0.000000 0.000000
vt 0.000000 0.000000
vt 1.000000 1.000000
vt 0.000000 1.000000
vt 0.000000 0.000000
vt 1.000000 0.050000
vt 0.000000 0.050000
vt 1.000000 0.050000
vt 0.000000 0.050000
vt 0.000000 0.950000
vt 1.000000 1.000000
vt 0.000000 1.000000
vt 0.000000 0.000000
vt 1.000000 0.050000
vt 0.000000 0.050000
vt 1.000000 1.000000
vt 1.000000 0.000000
vt 1.000000 0.000000
vt 1.000000 0.950000
vt 1.000000 0.000000
vn 0.0000 1.0000 0.0000
vn 0.0000 -1.0000 0.0000
vn 1.0000 0.0000 0.0000
vn -1.0000 0.0000 0.0000
vn 0.0000 0.0000 -1.0000
vn 0.0000 0.0000 1.0000
s off
f 2/1/1 3/2/1 1/3/1
f 7/4/2 6/5/2 5/6/2
f 6/7/3 4/8/3 2/9/3
f 7/4/4 1/10/4 3/11/4
f 8/12/5 3/13/5 4/14/5
f 5/15/6 2/16/6 1/17/6
f 2/1/1 4/18/1 3/2/1
f 7/4/2 8/19/2 6/5/2
f 6/7/3 8/19/3 4/8/3
f 7/4/4 5/20/4 1/10/4
f 8/12/5 7/21/5 3/13/5
f 5/15/6 6/22/6 2/16/6
