# Blender v2.72 (sub 0) OBJ File: 'Wall.blend'
# www.blender.org
mtllib wall.mtl
o Cube_Cube.001
v -2.500000 0.000000 0.050000
v -2.500000 5.000000 0.050000
v -2.500000 5.000000 -0.050000
v -2.500000 0.000000 -0.050000
v 2.500000 0.000000 0.050000
v 2.500000 5.000000 0.050000
v 2.500000 5.000000 -0.050000
v 2.500000 0.000000 -0.050000
vt 1.000000 1.000000
vt 0.000000 1.000000
vt 0.000000 0.000000
vt 0.058594 0.000000
vt 0.058594 1.000000
vt 1.000000 0.000000
vt 0.941406 1.000000
vt 0.011719 1.000000
vt 0.988281 1.000000
vt 0.988281 0.000000
vt 0.941406 0.000000
vt 0.011719 0.000000
vn -0.000000 0.000000 1.000000
vn 0.000000 1.000000 0.000000
vn 0.000000 -0.000000 -1.000000
vn 0.000000 -1.000000 0.000000
vn -1.000000 0.000000 0.000000
vn 1.000000 0.000000 0.000000
usemtl None
s off
f 6/1/1 2/2/1 1/3/1
f 7/4/2 3/5/2 2/2/2
f 8/6/3 4/3/3 3/2/3
f 5/6/4 1/1/4 4/7/4
f 2/8/5 3/2/5 4/3/5
f 7/1/6 6/9/6 5/10/6
f 5/6/1 6/1/1 1/3/1
f 6/3/2 7/4/2 2/2/2
f 7/1/3 8/6/3 3/2/3
f 8/11/4 5/6/4 4/7/4
f 1/12/5 2/8/5 4/3/5
f 8/6/6 7/1/6 5/10/6
