# Exported from ProBuilder
# http://www.procore3d.com/probuilder
# 3/10/2020 5:34:59 PM

mtllib ./ColumnPointy.mtl
o ColumnPointy

g Cube
v 0 0 0
v -0.5 0 0
v 0 2 0
v -0.5 2 0
v -0.5 0 0
v -0.5 0 -0.5
v -0.5 2 0
v -0.5 2 -0.5
v -0.5 0 -0.5
v 0 0 -0.5
v -0.5 2 -0.5
v 0 2 -0.5
v 0 0 -0.5
v 0 0 0
v 0 2 -0.5
v 0 2 0
v 0 0 -0.5
v -0.5 0 -0.5
v 0 0 0
v -0.5 0 0
v 0 2 0
v -0.5 2 0
v 0.04998779 2.05 0.04998779
v -0.5500183 2.05 0.04998779
v 0 2 -0.5
v 0 2 0
v 0.04998779 2.05 -0.5499878
v 0.04998779 2.05 0.04998779
v -0.5 2 0
v -0.5 2 -0.5
v -0.5500183 2.05 0.04998779
v -0.5500183 2.05 -0.5499878
v -0.5 2 -0.5
v 0 2 -0.5
v -0.5500183 2.05 -0.5499878
v 0.04998779 2.05 -0.5499878
v 0.04998779 2.05 0.04998779
v -0.5500183 2.05 0.04998779
v 0.04998779 2.150001 0.04998779
v -0.5500183 2.150001 0.04998779
v 0.04998779 2.05 -0.5499878
v 0.04998779 2.05 0.04998779
v 0.04998779 2.150001 -0.5499878
v 0.04998779 2.150001 0.04998779
v -0.5500183 2.05 0.04998779
v -0.5500183 2.05 -0.5499878
v -0.5500183 2.150001 0.04998779
v -0.5500183 2.150001 -0.5499878
v -0.5500183 2.05 -0.5499878
v 0.04998779 2.05 -0.5499878
v -0.5500183 2.150001 -0.5499878
v 0.04998779 2.150001 -0.5499878
v -0.5500183 2.150001 -0.5499878
v -0.5500183 2.150001 0.04998779
v -0.25 2.25 -0.25
v -0.5500183 2.150001 0.04998779
v 0.04998779 2.150001 0.04998779
v -0.25 2.25 -0.25
v 0.04998779 2.150001 0.04998779
v 0.04998779 2.150001 -0.5499878
v -0.25 2.25 -0.25
v 0.04998779 2.150001 -0.5499878
v -0.5500183 2.150001 -0.5499878
v -0.25 2.25 -0.25

vn 0 0 1
vn 0 0 1
vn 0 0 1
vn 0 0 1
vn -1 0 0
vn -1 0 0
vn -1 0 0
vn -1 0 0
vn 0 0 -1
vn 0 0 -1
vn 0 0 -1
vn 0 0 -1
vn 1 0 0
vn 1 0 0
vn 1 0 0
vn 1 0 0
vn 0 -1 0
vn 0 -1 0
vn 0 -1 0
vn 0 -1 0
vn 0 -0.7070192 0.7071944
vn 0 -0.7070191 0.7071944
vn 0 -0.707019 0.7071944
vn 0 -0.7070192 0.7071944
vn 0.7071944 -0.7070191 0
vn 0.7071944 -0.7070191 0
vn 0.7071944 -0.7070191 0
vn 0.7071944 -0.7070191 0
vn -0.7069787 -0.7072349 0
vn -0.7069786 -0.7072349 0
vn -0.7069787 -0.7072349 0
vn -0.7069787 -0.7072349 0
vn 0 -0.7070192 -0.7071944
vn 0 -0.7070191 -0.7071944
vn 0 -0.707019 -0.7071944
vn 0 -0.7070192 -0.7071944
vn 0 0 1
vn 0 0 1
vn 0 0 1
vn 0 0 1
vn 1 0 0
vn 1 0 0
vn 1 0 0
vn 1 0 0
vn -1 0 0
vn -1 0 0
vn -1 0 0
vn -1 0 0
vn 0 0 -1
vn 0 0 -1
vn 0 0 -1
vn 0 0 -1
vn -0.3162088 0.9486896 0
vn -0.3162088 0.9486896 0
vn -0.3162088 0.9486896 0
vn 0 0.94868 0.3162377
vn 0 0.94868 0.3162377
vn 0 0.94868 0.3162377
vn 0.3162377 0.9486799 0
vn 0.3162377 0.9486799 0
vn 0.3162377 0.9486799 0
vn 0 0.94868 -0.3162377
vn 0 0.94868 -0.3162377
vn 0 0.94868 -0.3162377

vt 0 0
vt -0.5 0
vt 0 2
vt -0.5 2
vt 0 0
vt -0.5 0
vt 0 2
vt -0.5 2
vt 0.5 0
vt 0 0
vt 0.5 2
vt 0 2
vt 0.5 0
vt 0 0
vt 0.5 2
vt 0 2
vt 0 -0.5
vt -0.5 -0.5
vt 0 0
vt -0.5 0
vt 0 1.414389
vt -0.5 1.414389
vt 0.04998779 1.485091
vt -0.5500183 1.485091
vt 0.5 1.414389
vt 0 1.414389
vt 0.5499878 1.485091
vt -0.04998779 1.485091
vt -1.767575 0
vt -1.767575 -0.5
vt -1.838299 0.04998779
vt -1.838299 -0.5499878
vt 0.5 1.767898
vt 0 1.767898
vt 0.5500183 1.838601
vt -0.04998779 1.838601
vt 0.04998779 2.05
vt -0.5500183 2.05
vt 0.04998779 2.051
vt -0.5500183 2.051
vt 0.5499878 2.05
vt -0.04998779 2.05
vt 0.5499878 2.051
vt -0.04998779 2.051
vt 0.04998779 2.05
vt -0.5499878 2.05
vt 0.04998779 2.051
vt -0.5499878 2.051
vt 0.5500183 2.05
vt -0.04998779 2.05
vt 0.5500183 2.051
vt -0.04998779 2.051
vt -0.1580524 -0.5499878
vt -0.1580524 0.04998779
vt -0.4742973 -0.25
vt 0.5500183 -0.6324888
vt -0.04998779 -0.6324888
vt 0.25 -0.9487048
vt 0.6324889 0.04998779
vt 0.6324889 -0.5499878
vt 0.948705 -0.25
vt -0.04998779 0.1581489
vt 0.5500183 0.1581489
vt 0.25 0.4743649

g Cube_0
usemtl Default_Prototype
f 3/3/3 4/4/4 2/2/2 1/1/1
f 7/7/7 8/8/8 6/6/6 5/5/5
f 11/11/11 12/12/12 10/10/10 9/9/9
f 15/15/15 16/16/16 14/14/14 13/13/13
f 19/19/19 20/20/20 18/18/18 17/17/17
f 23/23/23 24/24/24 22/22/22 21/21/21
f 27/27/27 28/28/28 26/26/26 25/25/25
f 31/31/31 32/32/32 30/30/30 29/29/29
f 35/35/35 36/36/36 34/34/34 33/33/33
f 39/39/39 40/40/40 38/38/38 37/37/37
f 43/43/43 44/44/44 42/42/42 41/41/41
f 47/47/47 48/48/48 46/46/46 45/45/45
f 51/51/51 52/52/52 50/50/50 49/49/49

g Cube_1
usemtl Default_Prototype
f 53/53/53 54/54/54 55/55/55
f 56/56/56 57/57/57 58/58/58
f 59/59/59 60/60/60 61/61/61
f 62/62/62 63/63/63 64/64/64

